<svg width="80" height="80" viewBox="0 0 80 80" fill="none" xmlns="http://www.w3.org/2000/svg">
<circle cx="40" cy="40" r="40" fill="#F04037" fill-opacity="0.25"/>
<path d="M37.1615 43.2052L36.0078 44.5078C35.1162 45.3994 33.9803 46.0065 32.7437 46.2525C31.5071 46.4985 30.2253 46.3722 29.0604 45.8897C27.8955 45.4072 26.8999 44.5901 26.1994 43.5418C25.4989 42.4934 25.125 41.2609 25.125 40C25.125 38.7391 25.4989 37.5066 26.1994 36.4582C26.8999 35.4099 27.8955 34.5928 29.0604 34.1103C30.2253 33.6278 31.5071 33.5015 32.7437 33.7475C33.9803 33.9935 35.1162 34.6006 36.0078 35.4922L43.9922 44.5078C44.8837 45.3994 46.0197 46.0065 47.2563 46.2525C48.4929 46.4985 49.7747 46.3722 50.9396 45.8897C52.1045 45.4072 53.1001 44.5901 53.8006 43.5418C54.5011 42.4934 54.875 41.2609 54.875 40C54.875 38.7391 54.5011 37.5066 53.8006 36.4582C53.1001 35.4099 52.1045 34.5928 50.9396 34.1103C49.7747 33.6278 48.4929 33.5015 47.2563 33.7475C46.0197 33.9935 44.8837 34.6006 43.9922 35.4922L42.8385 36.7949" stroke="#F04037" stroke-width="3" stroke-linecap="round" stroke-linejoin="round"/>
</svg>
