<svg width="80" height="80" viewBox="0 0 80 80" fill="none" xmlns="http://www.w3.org/2000/svg">
<circle opacity="0.4" cx="40" cy="40" r="40" fill="#9B51E0" fill-opacity="0.25"/>
<path fill-rule="evenodd" clip-rule="evenodd" d="M45.7536 48.2619H34.5373C33.8941 48.2619 33.3721 47.7399 33.3721 47.0968C33.3721 46.4536 33.8941 45.9316 34.5373 45.9316H45.7536C46.3967 45.9316 46.9187 46.4536 46.9187 47.0968C46.9187 47.7399 46.3967 48.2619 45.7536 48.2619" fill="#9B51E0"/>
<path fill-rule="evenodd" clip-rule="evenodd" d="M45.7536 41.7596H34.5373C33.8941 41.7596 33.3721 41.2377 33.3721 40.5945C33.3721 39.9514 33.8941 39.4294 34.5373 39.4294H45.7536C46.3967 39.4294 46.9187 39.9514 46.9187 40.5945C46.9187 41.2377 46.3967 41.7596 45.7536 41.7596" fill="#9B51E0"/>
<path fill-rule="evenodd" clip-rule="evenodd" d="M38.8172 35.2696H34.5373C33.8941 35.2696 33.3721 34.7476 33.3721 34.1045C33.3721 33.4613 33.8941 32.9393 34.5373 32.9393H38.8172C39.4603 32.9393 39.9823 33.4613 39.9823 34.1045C39.9823 34.7476 39.4603 35.2696 38.8172 35.2696" fill="#9B51E0"/>
<mask id="mask0_1_188" style="mask-type:luminance" maskUnits="userSpaceOnUse" x="26" y="25" width="29" height="31">
<path fill-rule="evenodd" clip-rule="evenodd" d="M26 25H54.219V55.93H26V25Z" fill="white"/>
</mask>
<g mask="url(#mask0_1_188)">
<path fill-rule="evenodd" clip-rule="evenodd" d="M46.0529 27.331L34.1079 27.3372C30.4914 27.3589 28.3289 29.596 28.3289 33.3229V47.6089C28.3289 51.3606 30.5116 53.6008 34.1639 53.6008L46.1088 53.5961C49.7253 53.5744 51.8878 51.3342 51.8878 47.6089V33.3229C51.8878 29.5711 49.7067 27.331 46.0529 27.331ZM34.1665 55.9301C29.2823 55.9301 25.9997 52.5854 25.9997 47.6079V33.3219C25.9997 28.2994 29.1797 25.0355 34.1012 25.006L46.0524 24.9998H46.0539C50.9381 24.9998 54.2191 28.3445 54.2191 33.3219V47.6079C54.2191 52.6289 51.0391 55.8943 46.1176 55.9254L34.1665 55.9301Z" fill="#9B51E0"/>
</g>
</svg>
