<svg width="39" height="42" viewBox="0 0 39 42" fill="none" xmlns="http://www.w3.org/2000/svg">
<path d="M5.37741 31.1287V20.801C5.37741 16.6924 6.87435 12.7521 9.53892 9.84684C12.2035 6.94162 15.8174 5.30948 19.5857 5.30948C23.3539 5.30948 26.9679 6.94162 29.6324 9.84684C32.297 12.7521 33.7939 16.6924 33.7939 20.801V31.1287" stroke="#1787FC" stroke-width="3" stroke-linecap="round" stroke-linejoin="round"/>
<path d="M33.7939 32.8499C33.7939 33.7629 33.4613 34.6386 32.8692 35.2842C32.277 35.9298 31.4739 36.2925 30.6366 36.2925H29.0579C28.2205 36.2925 27.4174 35.9298 26.8252 35.2842C26.2331 34.6386 25.9005 33.7629 25.9005 32.8499V27.6861C25.9005 26.7731 26.2331 25.8974 26.8252 25.2518C27.4174 24.6062 28.2205 24.2435 29.0579 24.2435H33.7939V32.8499ZM5.37741 32.8499C5.37741 33.7629 5.71006 34.6386 6.30219 35.2842C6.89432 35.9298 7.69741 36.2925 8.5348 36.2925H10.1135C10.9509 36.2925 11.754 35.9298 12.3461 35.2842C12.9382 34.6386 13.2709 33.7629 13.2709 32.8499V27.6861C13.2709 26.7731 12.9382 25.8974 12.3461 25.2518C11.754 24.6062 10.9509 24.2435 10.1135 24.2435H5.37741V32.8499Z" stroke="#1787FC" stroke-width="3" stroke-linecap="round" stroke-linejoin="round"/>
</svg>
