<svg width="34" height="37" viewBox="0 0 34 37" fill="none" xmlns="http://www.w3.org/2000/svg">
<path d="M29.0305 7.59095C28.3331 6.83024 27.5051 6.2268 26.5938 5.81509C25.6825 5.40338 24.7057 5.19147 23.7192 5.19147C22.7328 5.19147 21.756 5.40338 20.8446 5.81509C19.9333 6.2268 19.1053 6.83024 18.408 7.59095L16.9607 9.16894L15.5134 7.59095C14.1048 6.0551 12.1943 5.19226 10.2022 5.19226C8.21005 5.19226 6.29954 6.0551 4.89091 7.59095C3.48228 9.1268 2.69092 11.2099 2.69092 13.3819C2.69092 15.5539 3.48228 17.637 4.89091 19.1728L6.33819 20.7508L16.9607 32.3327L27.5832 20.7508L29.0305 19.1728C29.7281 18.4125 30.2816 17.5097 30.6592 16.5161C31.0368 15.5224 31.2312 14.4574 31.2312 13.3819C31.2312 12.3063 31.0368 11.2413 30.6592 10.2477C30.2816 9.25407 29.7281 8.3513 29.0305 7.59095V7.59095Z" stroke="#20BFA9" stroke-width="3" stroke-linecap="round" stroke-linejoin="round"/>
</svg>
