<svg width="15" height="15" viewBox="0 0 15 15" fill="none" xmlns="http://www.w3.org/2000/svg">
<path opacity="0.7" d="M14.4289 14.4851C14.0703 14.8093 13.584 14.9914 13.0769 14.9914C12.5698 14.9914 12.0835 14.8093 11.7249 14.4851L7.5008 10.1203L3.27669 14.4837C3.09967 14.6464 2.88877 14.7757 2.65617 14.8643C2.42357 14.953 2.17387 14.9991 1.92146 15C1.66906 15.0009 1.41894 14.9567 1.18555 14.8698C0.95216 14.7829 0.740109 14.6551 0.561629 14.4937C0.383149 14.3323 0.241774 14.1406 0.145656 13.9296C0.0495385 13.7186 0.000581364 13.4925 0.00160914 13.2643C0.00263691 13.0361 0.0536289 12.8104 0.151644 12.6001C0.249659 12.3898 0.392758 12.1992 0.572685 12.0391L4.96729 7.50144L0.571092 2.96088C0.391164 2.80085 0.248066 2.61019 0.150051 2.3999C0.0520356 2.18962 0.00104363 1.96387 1.58527e-05 1.73568C-0.00101192 1.50749 0.0479452 1.28137 0.144063 1.07037C0.24018 0.85937 0.381556 0.667663 0.560036 0.506306C0.738516 0.34495 0.950567 0.217138 1.18396 0.130241C1.41735 0.0433454 1.66746 -0.000914839 1.91987 1.43318e-05C2.17227 0.000943503 2.42198 0.0470434 2.65458 0.135655C2.88718 0.224266 3.09807 0.353636 3.2751 0.516301L7.5008 4.88255L11.7249 0.516301C11.9019 0.353636 12.1128 0.224266 12.3454 0.135655C12.578 0.0470434 12.8277 0.000943503 13.0801 1.43318e-05C13.3325 -0.000914839 13.5827 0.0433454 13.816 0.130241C14.0494 0.217138 14.2615 0.34495 14.44 0.506306C14.6184 0.667663 14.7598 0.85937 14.8559 1.07037C14.9521 1.28137 15.001 1.50749 15 1.73568C14.999 1.96387 14.948 2.18962 14.8499 2.3999C14.7519 2.61019 14.6088 2.80085 14.4289 2.96088L10.0343 7.50144L14.4289 12.0391C14.6067 12.1997 14.7477 12.3903 14.8439 12.6002C14.9402 12.81 14.9897 13.035 14.9897 13.2621C14.9897 13.4893 14.9402 13.7142 14.8439 13.9241C14.7477 14.1339 14.6067 14.3246 14.4289 14.4851V14.4851Z" fill="white"/>
</svg>
